<svg xmlns="http://www.w3.org/2000/svg" width="623" height="186" viewBox="-1.5 1.38 155.68 46.52" color="#001F1B" role="img" aria-label="Toastly" xmlns:c2pa="http://c2pa.org/manifest"><metadata><c2pa:manifest>AAAWgmp1bWIAAAAeanVtZGMycGEAEQAQgAAAqgA4m3EDYzJwYQAAABZcanVtYgAAAEdqdW1kYzJtYQARABCAAACqADibcQN1cm46YzJwYTo4ZmUxNWI4My05NjJkLTRkNjAtYjQwMC04M2MzMTdiZDkwODQAAAADl2p1bWIAAAApanVtZGMyYXMAEQAQgAAAqgA4m3EDYzJwYS5hc3NlcnRpb25zAAAAALxqdW1iAAAARGp1bWRjYm9yABEAEIAAAKoAOJtxE2MycGEuaW5ncmVkaWVudC52MwAAAAAYYzJzaB46jcxU4wPpxTTkNc6fp8oAAABwY2JvcqNpZGM6Zm9ybWF0bWltYWdlL3N2Zyt4bWxqaW5zdGFuY2VJRHgseG1wOmlpZDo5YWM5NmUwYS0wYWM1LTQwNTItYTg5Yi0xYjE3OWM1MTVhMGVscmVsYXRpb25zaGlwaHBhcmVudE9mAAAB4mp1bWIAAABBanVtZGNib3IAEQAQgAAAqgA4m3ETYzJwYS5hY3Rpb25zLnYyAAAAABhjMnNoFndZREv+WQWHfAxZ/CIbsAAAAZljYm9yomdhY3Rpb25zgqJmYWN0aW9ua2MycGEub3BlbmVkanBhcmFtZXRlcnOha2luZ3JlZGllbnRzgaJjdXJseC1zZWxmI2p1bWJmPWMycGEuYXNzZXJ0aW9ucy9jMnBhLmluZ3JlZGllbnQudjNkaGFzaFggb20KmZgqzJNHB9Q2eD/hli5E9ljdp2dAlEfjBuOv5xOkZmFjdGlvbngdY29tLmFudGhyb3BpYy5jbGF1ZGUucHJvdmlkZWRqcGFyYW1ldGVyc6F4H2NvbS5hbnRocm9waWMub3JpZ2luLWNvbmZpZGVuY2VndW5rbm93bmtkZXNjcmlwdGlvbnhmQ2xhdWRlIHByb3ZpZGVkIHRoaXMgZmlsZSBhdCB0aGUgcmVxdWVzdCBvZiBhIHVzZXIgYW5kIG1heSBoYXZlIGNyZWF0ZWQgb3IgbW9kaWZpZWQgdGhlIGZpbGUgY29udGVudHMubXNvZnR3YXJlQWdlbnShZG5hbWVmQ2xhdWRlcmFsbEFjdGlvbnNJbmNsdWRlZPUAAADIanVtYgAAAEBqdW1kY2JvcgARABCAAACqADibcRNjMnBhLmhhc2guZGF0YQAAAAAYYzJzaDtnVzxkmnVRIkv1Yyt3RBMAAACAY2JvcqVjYWxnZnNoYTI1NmNwYWRNAAAAAAAAAAAAAAAAAGRoYXNoWCC2WbiDofyfF3xPpDg+f6Il2LvSv53V57oNoAX08FXehGRuYW1lbmp1bWJmIG1hbmlmZXN0amV4Y2x1c2lvbnOBomVzdGFydBjRZmxlbmd0aBkeBAAAAj5qdW1iAAAAJ2p1bWRjMmNsABEAEIAAAKoAOJtxA2MycGEuY2xhaW0udjIAAAACD2Nib3KlY2FsZ2ZzaGEyNTZpc2lnbmF0dXJleE1zZWxmI2p1bWJmPS9jMnBhL3VybjpjMnBhOjhmZTE1YjgzLTk2MmQtNGQ2MC1iNDAwLTgzYzMxN2JkOTA4NC9jMnBhLnNpZ25hdHVyZWppbnN0YW5jZUlEeCx4bXA6aWlkOjE5ZTE3Mzc4LWI4ZWEtNDI5NS04OWYwLWI1NWRiYTJiN2NiN3JjcmVhdGVkX2Fzc2VydGlvbnODomN1cmx4LXNlbGYjanVtYmY9YzJwYS5hc3NlcnRpb25zL2MycGEuaW5ncmVkaWVudC52M2RoYXNoWCBvbQqZmCrMk0cH1DZ4P+GWLkT2WN2nZ0CUR+MG46/nE6JjdXJseCpzZWxmI2p1bWJmPWMycGEuYXNzZXJ0aW9ucy9jMnBhLmFjdGlvbnMudjJkaGFzaFgg2+YC7HdxVhHAm1kSNyAJLzUTdc0zulzDcbF85J+esmaiY3VybHgpc2VsZiNqdW1iZj1jMnBhLmFzc2VydGlvbnMvYzJwYS5oYXNoLmRhdGFkaGFzaFggvPpBmDnbucUFpNuEdJrrDb0JmDtCp1NaOEa0fLfTbyZ0Y2xhaW1fZ2VuZXJhdG9yX2luZm+jZG5hbWVvQW50aHJvcGljIEZpbGVzZ3ZlcnNpb25lMS4wLjBrc3BlY1ZlcnNpb25lMi40LjAAABA4anVtYgAAAChqdW1kYzJjcwARABCAAACqADibcQNjMnBhLnNpZ25hdHVyZQAAABAIY2JvctKEWQISogEmGCFZAgowggIGMIIBjaADAgECAhRA5aAK7sI50L64g/oGQgU9Z1UTADAKBggqhkjOPQQDAzBJMRcwFQYDVQQKEw5BbnRocm9waWMsIFBCQzEuMCwGA1UEAxMlQW50aHJvcGljIENvbnRlbnQgQ3JlZGVudGlhbHMgUm9vdCBDQTAeFw0yNjA4MDcxODQzNTZaFw0yODA4MDYxOTQzNTZaMEQxFzAVBgNVBAoTDkFudGhyb3BpYywgUEJDMSkwJwYDVQQDEyBBbnRocm9waWMgQ2xhdWRlIENvbnRlbnQgU2lnbmluZzBZMBMGByqGSM49AgEGCCqGSM49AwEHA0IABJh6CmvLUBgFFNU0vUKlOVtE6djd17L5SuwX0LemFisBM3dkd/3cyjxFA3Qo5S46fX0/ihY0VZ7mfb9KF703t5OjWDBWMA4GA1UdDwEB/wQEAwIHgDAVBgNVHSUEDjAMBgorBgEEAYPoXgIBMAwGA1UdEwEB/wQCMAAwHwYDVR0jBBgwFoAUzlHiBIFOZFsj+OPEz5o+nMHXXMIwCgYIKoZIzj0EAwMDZwAwZAIwMXMdFJ4BetLLVY7ORuE9noqbbAZOZn/aArXyTwFAZfKrPzxF2vPoJNf1+UCdg1XGAjBwX1zd9WGqYkqmL5SFqw1QySjr1zJfpJM9+1rdDwSPLMOPOjKuiXjoU/pUUeG9RwmhY3BhZFkNngAAAAAAAAAAAAAAAAAAAAAAAAAAAAAAAAAAAAAAAAAAAAAAAAAAAAAAAAAAAAAAAAAAAAAAAAAAAAAAAAAAAAAAAAAAAAAAAAAAAAAAAAAAAAAAAAAAAAAAAAAAAAAAAAAAAAAAAAAAAAAAAAAAAAAAAAAAAAAAAAAAAAAAAAAAAAAAAAAAAAAAAAAAAAAAAAAAAAAAAAAAAAAAAAAAAAAAAAAAAAAAAAAAAAAAAAAAAAAAAAAAAAAAAAAAAAAAAAAAAAAAAAAAAAAAAAAAAAAAAAAAAAAAAAAAAAAAAAAAAAAAAAAAAAAAAAAAAAAAAAAAAAAAAAAAAAAAAAAAAAAAAAAAAAAAAAAAAAAAAAAAAAAAAAAAAAAAAAAAAAAAAAAAAAAAAAAAAAAAAAAAAAAAAAAAAAAAAAAAAAAAAAAAAAAAAAAAAAAAAAAAAAAAAAAAAAAAAAAAAAAAAAAAAAAAAAAAAAAAAAAAAAAAAAAAAAAAAAAAAAAAAAAAAAAAAAAAAAAAAAAAAAAAAAAAAAAAAAAAAAAAAAAAAAAAAAAAAAAAAAAAAAAAAAAAAAAAAAAAAAAAAAAAAAAAAAAAAAAAAAAAAAAAAAAAAAAAAAAAAAAAAAAAAAAAAAAAAAAAAAAAAAAAAAAAAAAAAAAAAAAAAAAAAAAAAAAAAAAAAAAAAAAAAAAAAAAAAAAAAAAAAAAAAAAAAAAAAAAAAAAAAAAAAAAAAAAAAAAAAAAAAAAAAAAAAAAAAAAAAAAAAAAAAAAAAAAAAAAAAAAAAAAAAAAAAAAAAAAAAAAAAAAAAAAAAAAAAAAAAAAAAAAAAAAAAAAAAAAAAAAAAAAAAAAAAAAAAAAAAAAAAAAAAAAAAAAAAAAAAAAAAAAAAAAAAAAAAAAAAAAAAAAAAAAAAAAAAAAAAAAAAAAAAAAAAAAAAAAAAAAAAAAAAAAAAAAAAAAAAAAAAAAAAAAAAAAAAAAAAAAAAAAAAAAAAAAAAAAAAAAAAAAAAAAAAAAAAAAAAAAAAAAAAAAAAAAAAAAAAAAAAAAAAAAAAAAAAAAAAAAAAAAAAAAAAAAAAAAAAAAAAAAAAAAAAAAAAAAAAAAAAAAAAAAAAAAAAAAAAAAAAAAAAAAAAAAAAAAAAAAAAAAAAAAAAAAAAAAAAAAAAAAAAAAAAAAAAAAAAAAAAAAAAAAAAAAAAAAAAAAAAAAAAAAAAAAAAAAAAAAAAAAAAAAAAAAAAAAAAAAAAAAAAAAAAAAAAAAAAAAAAAAAAAAAAAAAAAAAAAAAAAAAAAAAAAAAAAAAAAAAAAAAAAAAAAAAAAAAAAAAAAAAAAAAAAAAAAAAAAAAAAAAAAAAAAAAAAAAAAAAAAAAAAAAAAAAAAAAAAAAAAAAAAAAAAAAAAAAAAAAAAAAAAAAAAAAAAAAAAAAAAAAAAAAAAAAAAAAAAAAAAAAAAAAAAAAAAAAAAAAAAAAAAAAAAAAAAAAAAAAAAAAAAAAAAAAAAAAAAAAAAAAAAAAAAAAAAAAAAAAAAAAAAAAAAAAAAAAAAAAAAAAAAAAAAAAAAAAAAAAAAAAAAAAAAAAAAAAAAAAAAAAAAAAAAAAAAAAAAAAAAAAAAAAAAAAAAAAAAAAAAAAAAAAAAAAAAAAAAAAAAAAAAAAAAAAAAAAAAAAAAAAAAAAAAAAAAAAAAAAAAAAAAAAAAAAAAAAAAAAAAAAAAAAAAAAAAAAAAAAAAAAAAAAAAAAAAAAAAAAAAAAAAAAAAAAAAAAAAAAAAAAAAAAAAAAAAAAAAAAAAAAAAAAAAAAAAAAAAAAAAAAAAAAAAAAAAAAAAAAAAAAAAAAAAAAAAAAAAAAAAAAAAAAAAAAAAAAAAAAAAAAAAAAAAAAAAAAAAAAAAAAAAAAAAAAAAAAAAAAAAAAAAAAAAAAAAAAAAAAAAAAAAAAAAAAAAAAAAAAAAAAAAAAAAAAAAAAAAAAAAAAAAAAAAAAAAAAAAAAAAAAAAAAAAAAAAAAAAAAAAAAAAAAAAAAAAAAAAAAAAAAAAAAAAAAAAAAAAAAAAAAAAAAAAAAAAAAAAAAAAAAAAAAAAAAAAAAAAAAAAAAAAAAAAAAAAAAAAAAAAAAAAAAAAAAAAAAAAAAAAAAAAAAAAAAAAAAAAAAAAAAAAAAAAAAAAAAAAAAAAAAAAAAAAAAAAAAAAAAAAAAAAAAAAAAAAAAAAAAAAAAAAAAAAAAAAAAAAAAAAAAAAAAAAAAAAAAAAAAAAAAAAAAAAAAAAAAAAAAAAAAAAAAAAAAAAAAAAAAAAAAAAAAAAAAAAAAAAAAAAAAAAAAAAAAAAAAAAAAAAAAAAAAAAAAAAAAAAAAAAAAAAAAAAAAAAAAAAAAAAAAAAAAAAAAAAAAAAAAAAAAAAAAAAAAAAAAAAAAAAAAAAAAAAAAAAAAAAAAAAAAAAAAAAAAAAAAAAAAAAAAAAAAAAAAAAAAAAAAAAAAAAAAAAAAAAAAAAAAAAAAAAAAAAAAAAAAAAAAAAAAAAAAAAAAAAAAAAAAAAAAAAAAAAAAAAAAAAAAAAAAAAAAAAAAAAAAAAAAAAAAAAAAAAAAAAAAAAAAAAAAAAAAAAAAAAAAAAAAAAAAAAAAAAAAAAAAAAAAAAAAAAAAAAAAAAAAAAAAAAAAAAAAAAAAAAAAAAAAAAAAAAAAAAAAAAAAAAAAAAAAAAAAAAAAAAAAAAAAAAAAAAAAAAAAAAAAAAAAAAAAAAAAAAAAAAAAAAAAAAAAAAAAAAAAAAAAAAAAAAAAAAAAAAAAAAAAAAAAAAAAAAAAAAAAAAAAAAAAAAAAAAAAAAAAAAAAAAAAAAAAAAAAAAAAAAAAAAAAAAAAAAAAAAAAAAAAAAAAAAAAAAAAAAAAAAAAAAAAAAAAAAAAAAAAAAAAAAAAAAAAAAAAAAAAAAAAAAAAAAAAAAAAAAAAAAAAAAAAAAAAAAAAAAAAAAAAAAAAAAAAAAAAAAAAAAAAAAAAAAAAAAAAAAAAAAAAAAAAAAAAAAAAAAAAAAAAAAAAAAAAAAAAAAAAAAAAAAAAAAAAAAAAAAAAAAAAAAAAAAAAAAAAAAAAAAAAAAAAAAAAAAAAAAAAAAAAAAAAAAAAAAAAAAAAAAAAAAAAAAAAAAAAAAAAAAAAAAAAAAAAAAAAAAAAAAAAAAAAAAAAAAAAAAAAAAAAAAAAAAAAAAAAAAAAAAAAAAAAAAAAAAAAAAAAAAAAAAAAAAAAAAAAAAAAAAAAAAAAAAAAAAAAAAAAAAAAAAAAAAAAAAAAAAAAAAAAAAAAAAAAAAAAAAAAAAAAAAAAAAAAAAAAAAAAAAAAAAAAAAAAAAAAAAAAAAAAAAAAAAAAAAAAAAAAAAAAAAAAAAAAAAAAAAAAAAAAAAAAAAAAAAAAAAAAAAAAAAAAAAAAAAAAAAAAAAAAAAAAAAAAAAAAAAAAAAAAAAAAAAAAAAAAAAAAAAAAAAAAAAAAAAAAAAAAAAAAAAAAAAAAAAAAAAAAAAAAAAAAAAAAAAAAAAAAAAAAAAAAAAAAAAAAAAAAAAAAAAAAAAAAAAAAAAAAAAAAAAAAAAAAAAAAAAAAAAAAAAAAAAAAAAAAAAAAAAAAAAAAAAAAAAAAAAAAAAAAAAAAAAAAAAAAAAAAAAAAAAAAAAAAAAAAAAAAAAAAAAAAAAAAAAAAAAAAAAAAAAAAAAAAAAAAAAAAAAAAAAAAAAAAAAAAAAAAAAAAAAAAAAAAAAAAAAAAAAAAAAAAAAAAAAAAAAAAAAAAAAAAAAAAAAAAAAAAAAAAAAAAAAAAAAAAAAAAAAAAAAAAAAAAAAAAAAAAAAAAAAAAAAAAAAAAAAAAAAAAAAAAAAAAAAAAAAAAAAAAAAAAAAAAAAAAAAAAAAAAAAAAAAAAAAAAAAAAAAAAAAAAAAAAAAAAAAAAAAAAAAAAAAAAAAAAAAAAAAAAAAAAAAAAAAAAAAAAAAAAAAAAAAAAAAAAAAAAAAAAAAAAAAAAAAAAAAAAAAAAAAAAAAAAAAAAAAAAAAAAAAAAAAAAAAAAAAAAAAAAAAAAAAAAAAAAAAAAAAAAAAAAAAAAAAAAAAAAAAAAAAAAAAAAAAAAAAAAAAAAAAAAAAAAAAAAAAAAAAAAAAAAAAAAAAAAAAAAAAAAAAAAAAAAAAAAAAAAAAAAAAAAAAAAAAAAAAAAAAAAAAAAAAAAAAAAAAAAAAAAAAAAAAAAAAAAAAAAAAAAAAAAAAAAAAAAAAAAAAAAAAAAAAAAAAAAAAAAAAAAAAAAAAAAAAAAAAAAAAAAAAAAAAAAAAAAAAAAAAAAAAAAAAAAAAAAAAAAAAAAAAAAAAAAAAAAAAAAAAAAAAAAAAAAAAAAAAAAAAAAAAAAAAAAAAAAAAAAAAAAAAAAAAAAAAAAAAAAAAAAAAAAAAAAAAAAAAAAAAAAAAAAAAAAAAAAAAAAAAAAAAAAAAAAAAAAAAAAAAAAAAAAAAAAAAAAAAAAAAAAAAAAAAAAAAAAAAAAAAAAAAAAAAAAAAAAAAAAAAAAAAAAAAAAAAAAAAAAAAAAAAAAAAAAAAAAAAAAAAAAAAAAAAAAAAAAAAAAAAAAAAAAAAAAAAAAAAAAAAAAAAAAAAAAAAAAAAAAAAAAAAAAAAAAAAAAAAAAAAAAAAAAAAAAAPZYQI9m0CGcvYMn7GzdxQWATfSplIx13bOpbjUvvTRYIy/ZztfrBekj/e1fjXWgOhh+Mpj1Z1cjcPHXFIm2RQtbX30=</c2pa:manifest></metadata>
  <circle cx="19" cy="22" r="9.5" fill="none" stroke="currentColor" stroke-width="3"></circle>
  <circle cx="29" cy="22" r="9.5" fill="none" stroke="currentColor" stroke-width="3"></circle>
  <rect x="8" y="36" width="32" height="2.4" rx="1.2" fill="currentColor"></rect>
  <path fill="currentColor" fill-rule="evenodd" d="M119.911 10.877L125.703 10.877L125.724 10.94L125.724 29.565L125.766 29.607L125.828 29.627L125.953 29.627L125.995 29.669L126.12 29.669L126.161 29.711L126.328 29.711L126.37 29.752L126.536 29.752L126.578 29.794L126.745 29.794L126.786 29.836L126.953 29.836L126.995 29.877L127.12 29.877L127.161 29.919L127.245 29.919L127.286 29.961L127.37 29.961L127.411 30.002L127.453 30.002L127.495 30.044L127.536 30.044L127.62 30.127L127.661 30.127L127.703 30.169L127.724 30.232L127.807 30.315L127.807 30.357L127.849 30.398L127.849 30.482L127.891 30.523L127.891 30.773L127.932 30.815L127.932 32.44L127.87 32.461L119.911 32.461L119.891 32.398L119.891 30.732L119.932 30.69L119.932 30.482L119.974 30.44L119.974 30.357L120.099 30.232L120.099 30.19L120.182 30.107L120.245 30.086L120.286 30.044L120.328 30.044L120.37 30.002L120.411 30.002L120.453 29.961L120.495 29.961L120.536 29.919L120.661 29.919L120.703 29.877L120.828 29.877L120.87 29.836L121.036 29.836L121.078 29.794L121.245 29.794L121.286 29.752L121.411 29.752L121.453 29.711L121.62 29.711L121.661 29.669L121.828 29.669L121.87 29.627L122.036 29.627L122.057 29.565L122.057 13.773L122.016 13.732L121.953 13.711L121.828 13.711L121.786 13.669L121.62 13.669L121.578 13.627L121.453 13.627L121.411 13.586L121.245 13.586L121.203 13.544L121.036 13.544L120.995 13.502L120.87 13.502L120.828 13.461L120.661 13.461L120.62 13.419L120.495 13.419L120.453 13.377L120.411 13.377L120.37 13.336L120.328 13.336L120.203 13.211L120.161 13.211L120.078 13.127L120.057 13.065L119.974 12.982L119.974 12.898L119.932 12.857L119.932 12.69L119.891 12.648L119.891 10.94ZM49.953 11.461L66.495 11.461L66.516 11.523L66.516 17.232L66.453 17.252L64.786 17.252L64.745 17.211L64.661 17.211L64.62 17.169L64.578 17.169L64.495 17.086L64.453 17.086L64.411 17.044L64.391 16.982L64.307 16.898L64.307 16.857L64.266 16.815L64.266 16.773L64.182 16.648L64.182 16.523L64.141 16.482L64.141 16.315L64.099 16.273L64.099 16.107L64.057 16.065L64.057 15.857L64.016 15.815L64.016 15.607L63.974 15.565L63.974 15.398L63.932 15.357L63.932 15.148L63.891 15.107L63.891 14.94L63.849 14.898L63.849 14.732L63.786 14.711L60.286 14.711L60.266 14.773L60.266 29.607L60.328 29.627L60.453 29.627L60.495 29.669L60.661 29.669L60.703 29.711L60.87 29.711L60.911 29.752L61.078 29.752L61.12 29.794L61.245 29.794L61.286 29.836L61.453 29.836L61.495 29.877L61.62 29.877L61.661 29.919L61.786 29.919L61.911 30.002L61.995 30.002L62.078 30.086L62.12 30.086L62.286 30.252L62.307 30.315L62.349 30.357L62.349 30.398L62.391 30.44L62.391 30.648L62.432 30.69L62.432 32.44L62.37 32.461L54.078 32.461L54.057 32.398L54.057 30.815L54.099 30.773L54.099 30.482L54.141 30.44L54.141 30.357L54.432 30.065L54.495 30.044L54.536 30.002L54.578 30.002L54.62 29.961L54.703 29.961L54.745 29.919L54.828 29.919L54.87 29.877L54.995 29.877L55.036 29.836L55.203 29.836L55.245 29.794L55.411 29.794L55.453 29.752L55.62 29.752L55.661 29.711L55.828 29.711L55.87 29.669L56.036 29.669L56.078 29.627L56.203 29.627L56.224 29.565L56.224 14.732L56.161 14.711L52.661 14.711L52.641 14.815L52.599 14.857L52.599 15.065L52.557 15.107L52.557 15.273L52.516 15.315L52.516 15.523L52.474 15.565L52.474 15.773L52.432 15.815L52.432 15.982L52.391 16.023L52.391 16.232L52.349 16.273L52.349 16.44L52.307 16.482L52.307 16.607L52.266 16.648L52.266 16.732L52.224 16.773L52.224 16.815L52.182 16.857L52.182 16.898L51.932 17.148L51.87 17.169L51.828 17.211L51.745 17.211L51.703 17.252L49.953 17.252L49.932 17.19L49.932 14.107L49.974 14.065L49.932 14.023L49.932 11.648L49.974 11.607L49.932 11.565L49.932 11.523ZM112.661 13.044L114.786 13.044L114.807 13.107L114.807 17.69L114.87 17.711L118.703 17.711L118.724 17.773L118.724 20.232L118.661 20.252L114.828 20.252L114.807 20.315L114.807 28.648L114.849 28.69L114.849 28.815L114.891 28.857L114.891 28.94L114.932 28.982L114.932 29.065L114.974 29.107L114.974 29.148L115.016 29.19L115.016 29.232L115.141 29.357L115.141 29.398L115.307 29.565L115.37 29.586L115.411 29.627L115.453 29.627L115.578 29.711L115.661 29.711L115.703 29.752L115.786 29.752L115.828 29.794L116.245 29.794L116.286 29.752L116.453 29.752L116.578 29.669L116.661 29.669L116.703 29.627L116.745 29.627L116.786 29.586L116.828 29.586L116.87 29.544L116.911 29.544L116.953 29.502L116.995 29.502L117.036 29.461L117.078 29.461L117.203 29.377L117.286 29.377L117.328 29.336L117.453 29.336L117.495 29.294L117.578 29.294L117.62 29.336L117.745 29.336L117.828 29.419L117.87 29.419L117.891 29.482L118.016 29.607L118.016 29.648L118.099 29.732L118.099 29.773L118.182 29.857L118.182 29.898L118.224 29.94L118.224 29.982L118.307 30.065L118.307 30.107L118.391 30.19L118.391 30.232L118.432 30.273L118.432 30.315L118.516 30.398L118.516 30.44L118.599 30.523L118.599 30.565L118.641 30.607L118.641 30.648L118.724 30.732L118.724 30.773L118.807 30.857L118.807 30.898L118.849 30.94L118.849 30.982L118.932 31.065L118.932 31.107L119.016 31.19L119.016 31.232L119.057 31.273L119.057 31.315L119.099 31.357L119.099 31.398L119.057 31.44L118.995 31.461L118.911 31.544L118.87 31.544L118.745 31.669L118.703 31.669L118.62 31.752L118.578 31.752L118.536 31.794L118.495 31.794L118.453 31.836L118.411 31.836L118.37 31.877L118.328 31.877L118.245 31.961L118.203 31.961L118.161 32.002L118.12 32.002L118.078 32.044L118.036 32.044L117.911 32.127L117.828 32.127L117.786 32.169L117.745 32.169L117.703 32.211L117.62 32.211L117.495 32.294L117.411 32.294L117.37 32.336L117.286 32.336L117.245 32.377L117.161 32.377L117.12 32.419L116.995 32.419L116.953 32.461L116.87 32.461L116.828 32.502L116.703 32.502L116.661 32.544L116.495 32.544L116.453 32.586L116.245 32.586L116.203 32.627L115.995 32.627L115.953 32.669L115.245 32.669L115.203 32.711L115.161 32.669L114.536 32.669L114.495 32.627L114.245 32.627L114.203 32.586L113.995 32.586L113.953 32.544L113.828 32.544L113.786 32.502L113.703 32.502L113.661 32.461L113.578 32.461L113.536 32.419L113.453 32.419L113.411 32.377L113.37 32.377L113.328 32.336L113.286 32.336L113.161 32.252L113.078 32.252L113.036 32.211L112.995 32.211L112.911 32.127L112.87 32.127L112.786 32.044L112.745 32.044L112.703 32.002L112.661 32.002L112.411 31.752L112.37 31.752L112.078 31.461L112.057 31.398L111.891 31.232L111.891 31.19L111.807 31.107L111.807 31.065L111.766 31.023L111.766 30.982L111.682 30.898L111.682 30.857L111.641 30.815L111.641 30.773L111.599 30.732L111.599 30.69L111.516 30.565L111.516 30.482L111.474 30.44L111.474 30.398L111.391 30.273L111.391 30.148L111.349 30.107L111.349 29.982L111.307 29.94L111.307 29.857L111.266 29.815L111.266 29.648L111.224 29.607L111.224 29.398L111.182 29.357L111.182 28.898L111.141 28.857L111.141 20.273L111.078 20.252L109.453 20.252L109.411 20.211L109.328 20.211L109.245 20.127L109.203 20.127L109.036 19.961L109.016 19.857L108.974 19.815L108.974 19.648L108.932 19.607L108.932 18.107L108.995 18.086L109.036 18.044L109.245 18.044L109.286 18.002L109.495 18.002L109.536 17.961L109.745 17.961L109.786 17.919L109.953 17.919L109.995 17.877L110.203 17.877L110.245 17.836L110.453 17.836L110.495 17.794L110.703 17.794L110.745 17.752L110.953 17.752L110.995 17.711L111.203 17.711L111.245 17.669L111.328 17.669L111.349 17.565L111.391 17.523L111.391 17.357L111.432 17.315L111.432 17.148L111.474 17.107L111.474 16.898L111.516 16.857L111.516 16.69L111.557 16.648L111.557 16.482L111.599 16.44L111.599 16.232L111.641 16.19L111.641 16.023L111.682 15.982L111.682 15.773L111.724 15.732L111.724 15.565L111.766 15.523L111.766 15.357L111.807 15.315L111.807 15.107L111.849 15.065L111.849 14.898L111.891 14.857L111.891 14.69L111.932 14.648L111.932 14.44L111.974 14.398L111.974 14.232L112.016 14.19L112.016 13.982L112.057 13.94L112.057 13.773L112.099 13.732L112.099 13.607L112.141 13.565L112.141 13.482L112.182 13.44L112.182 13.398L112.266 13.315L112.266 13.273L112.349 13.19L112.411 13.169L112.453 13.127L112.495 13.127L112.536 13.086L112.62 13.086ZM88.328 17.294L89.328 17.294L89.37 17.336L89.786 17.336L89.828 17.377L90.12 17.377L90.161 17.419L90.328 17.419L90.37 17.461L90.495 17.461L90.536 17.502L90.661 17.502L90.703 17.544L90.828 17.544L90.87 17.586L90.953 17.586L91.078 17.669L91.161 17.669L91.203 17.711L91.286 17.711L91.328 17.752L91.37 17.752L91.411 17.794L91.453 17.794L91.495 17.836L91.536 17.836L91.578 17.877L91.62 17.877L91.661 17.919L91.703 17.919L91.745 17.961L91.786 17.961L91.828 18.002L91.87 18.002L91.911 18.044L91.953 18.044L92.036 18.127L92.078 18.127L92.161 18.211L92.203 18.211L92.286 18.294L92.328 18.294L92.453 18.419L92.495 18.419L92.703 18.627L92.745 18.627L92.911 18.794L92.932 18.857L93.266 19.19L93.266 19.232L93.391 19.357L93.391 19.398L93.474 19.482L93.474 19.523L93.557 19.607L93.557 19.648L93.641 19.732L93.641 19.773L93.682 19.815L93.682 19.857L93.766 19.94L93.766 19.982L93.807 20.023L93.807 20.065L93.891 20.19L93.891 20.273L93.932 20.315L93.932 20.357L93.974 20.398L93.974 20.44L94.057 20.565L94.057 20.648L94.099 20.69L94.099 20.773L94.141 20.815L94.141 20.898L94.182 20.94L94.182 21.023L94.224 21.065L94.224 21.19L94.266 21.232L94.266 21.398L94.307 21.44L94.307 21.607L94.349 21.648L94.349 21.815L94.391 21.857L94.391 22.148L94.432 22.19L94.432 22.607L94.474 22.648L94.474 29.607L94.536 29.627L94.661 29.627L94.703 29.669L94.87 29.669L94.911 29.711L95.078 29.711L95.12 29.752L95.286 29.752L95.328 29.794L95.495 29.794L95.536 29.836L95.703 29.836L95.745 29.877L95.87 29.877L95.911 29.919L95.995 29.919L96.036 29.961L96.078 29.961L96.12 30.002L96.161 30.002L96.203 30.044L96.245 30.044L96.286 30.086L96.328 30.086L96.536 30.294L96.557 30.398L96.599 30.44L96.599 30.523L96.641 30.565L96.641 32.44L96.578 32.461L92.453 32.461L92.411 32.419L92.245 32.419L92.203 32.377L92.12 32.377L92.078 32.336L91.995 32.336L91.745 32.086L91.724 32.023L91.641 31.94L91.641 31.857L91.557 31.732L91.557 31.648L91.516 31.607L91.516 31.523L91.474 31.482L91.474 31.357L91.432 31.315L91.432 31.19L91.391 31.148L91.391 31.065L91.349 31.023L91.349 30.898L91.307 30.857L91.307 30.773L91.266 30.732L91.266 30.648L91.224 30.648L91.099 30.773L91.036 30.794L90.87 30.961L90.828 30.961L90.661 31.127L90.62 31.127L90.536 31.211L90.495 31.211L90.37 31.336L90.328 31.336L90.203 31.461L90.161 31.461L90.078 31.544L90.036 31.544L89.953 31.627L89.911 31.627L89.87 31.669L89.828 31.669L89.745 31.752L89.703 31.752L89.62 31.836L89.578 31.836L89.536 31.877L89.495 31.877L89.411 31.961L89.37 31.961L89.328 32.002L89.286 32.002L89.245 32.044L89.203 32.044L89.161 32.086L89.12 32.086L89.078 32.127L89.036 32.127L88.911 32.211L88.828 32.211L88.703 32.294L88.62 32.294L88.495 32.377L88.411 32.377L88.37 32.419L88.245 32.419L88.203 32.461L88.12 32.461L88.078 32.502L87.953 32.502L87.911 32.544L87.745 32.544L87.703 32.586L87.536 32.586L87.495 32.627L87.161 32.627L87.12 32.669L85.661 32.669L85.62 32.627L85.37 32.627L85.328 32.586L85.12 32.586L85.078 32.544L84.953 32.544L84.911 32.502L84.786 32.502L84.745 32.461L84.62 32.461L84.578 32.419L84.495 32.419L84.37 32.336L84.286 32.336L84.161 32.252L84.078 32.252L84.036 32.211L83.995 32.211L83.953 32.169L83.911 32.169L83.828 32.086L83.786 32.086L83.745 32.044L83.703 32.044L83.661 32.002L83.62 32.002L83.495 31.877L83.453 31.877L83.328 31.752L83.286 31.752L82.828 31.294L82.807 31.232L82.682 31.107L82.682 31.065L82.599 30.982L82.599 30.94L82.516 30.857L82.516 30.815L82.474 30.773L82.474 30.732L82.391 30.648L82.391 30.607L82.307 30.482L82.307 30.398L82.266 30.357L82.266 30.273L82.182 30.148L82.182 30.065L82.141 30.023L82.141 29.898L82.099 29.857L82.099 29.732L82.057 29.69L82.057 29.482L82.016 29.44L82.016 29.19L81.974 29.148L81.974 28.232L82.016 28.19L82.016 28.065L82.057 28.023L82.057 27.898L82.099 27.857L82.099 27.732L82.141 27.69L82.141 27.607L82.182 27.565L82.182 27.482L82.224 27.44L82.224 27.398L82.307 27.273L82.307 27.19L82.349 27.148L82.349 27.107L82.391 27.065L82.391 27.023L82.474 26.94L82.474 26.898L82.557 26.815L82.557 26.773L82.641 26.69L82.641 26.648L82.766 26.523L82.766 26.482L83.391 25.857L83.453 25.836L83.578 25.711L83.62 25.711L83.703 25.627L83.745 25.627L83.87 25.502L83.911 25.502L83.953 25.461L83.995 25.461L84.078 25.377L84.12 25.377L84.161 25.336L84.203 25.336L84.245 25.294L84.286 25.294L84.328 25.252L84.37 25.252L84.411 25.211L84.453 25.211L84.495 25.169L84.536 25.169L84.578 25.127L84.62 25.127L84.661 25.086L84.703 25.086L84.828 25.002L84.911 25.002L84.953 24.961L85.036 24.961L85.078 24.919L85.12 24.919L85.161 24.877L85.245 24.877L85.37 24.794L85.453 24.794L85.495 24.752L85.578 24.752L85.62 24.711L85.703 24.711L85.745 24.669L85.828 24.669L85.87 24.627L85.953 24.627L85.995 24.586L86.078 24.586L86.12 24.544L86.203 24.544L86.245 24.502L86.37 24.502L86.411 24.461L86.495 24.461L86.536 24.419L86.661 24.419L86.703 24.377L86.87 24.377L86.911 24.336L87.036 24.336L87.078 24.294L87.245 24.294L87.286 24.252L87.453 24.252L87.495 24.211L87.703 24.211L87.745 24.169L87.953 24.169L87.995 24.127L88.203 24.127L88.245 24.086L88.536 24.086L88.578 24.044L88.87 24.044L88.911 24.002L89.37 24.002L89.411 23.961L89.87 23.961L89.911 23.919L90.828 23.919L90.849 23.857L90.849 22.357L90.807 22.315L90.807 22.065L90.766 22.023L90.766 21.898L90.724 21.857L90.724 21.732L90.682 21.69L90.682 21.607L90.641 21.565L90.641 21.482L90.599 21.44L90.599 21.398L90.557 21.357L90.557 21.315L90.516 21.273L90.516 21.232L90.474 21.19L90.474 21.148L90.391 21.065L90.391 21.023L90.307 20.94L90.307 20.898L90.016 20.607L89.953 20.586L89.87 20.502L89.828 20.502L89.745 20.419L89.703 20.419L89.661 20.377L89.578 20.377L89.536 20.336L89.495 20.336L89.453 20.294L89.37 20.294L89.328 20.252L89.203 20.252L89.161 20.211L88.995 20.211L88.953 20.169L88.62 20.169L88.578 20.127L88.286 20.127L88.245 20.169L87.828 20.169L87.786 20.211L87.62 20.211L87.578 20.252L87.453 20.252L87.411 20.294L87.328 20.294L87.286 20.336L87.203 20.336L87.078 20.419L86.995 20.419L86.953 20.461L86.87 20.461L86.828 20.502L86.786 20.502L86.745 20.544L86.703 20.544L86.661 20.586L86.62 20.586L86.578 20.627L86.536 20.627L86.495 20.669L86.453 20.669L86.411 20.711L86.37 20.711L86.328 20.752L86.286 20.752L86.245 20.794L86.203 20.794L86.161 20.836L86.12 20.836L86.078 20.877L86.036 20.877L85.995 20.919L85.953 20.919L85.87 21.002L85.828 21.002L85.786 21.044L85.745 21.044L85.703 21.086L85.661 21.086L85.62 21.127L85.578 21.127L85.536 21.169L85.495 21.169L85.453 21.211L85.411 21.211L85.37 21.252L85.328 21.252L85.203 21.336L85.12 21.336L85.078 21.377L84.953 21.377L84.911 21.419L84.745 21.419L84.703 21.461L84.161 21.461L84.12 21.419L84.078 21.419L84.036 21.377L83.953 21.377L83.87 21.294L83.828 21.294L83.703 21.169L83.661 21.169L83.495 21.002L83.474 20.94L83.349 20.815L83.349 20.773L83.307 20.732L83.307 20.69L83.266 20.648L83.266 20.607L83.182 20.523L83.182 20.482L83.141 20.44L83.141 20.398L83.057 20.315L83.057 20.273L83.016 20.232L83.016 20.19L82.974 20.148L82.974 20.107L82.891 20.023L82.891 19.982L82.849 19.94L82.849 19.898L82.807 19.857L82.807 19.815L82.766 19.773L82.766 19.732L82.682 19.648L82.766 19.565L82.828 19.544L83.036 19.336L83.078 19.336L83.245 19.169L83.286 19.169L83.411 19.044L83.453 19.044L83.536 18.961L83.578 18.961L83.661 18.877L83.703 18.877L83.828 18.752L83.87 18.752L83.953 18.669L83.995 18.669L84.078 18.586L84.12 18.586L84.161 18.544L84.203 18.544L84.245 18.502L84.286 18.502L84.37 18.419L84.411 18.419L84.453 18.377L84.495 18.377L84.536 18.336L84.578 18.336L84.62 18.294L84.661 18.294L84.745 18.211L84.786 18.211L84.828 18.169L84.911 18.169L84.953 18.127L84.995 18.127L85.12 18.044L85.203 18.044L85.245 18.002L85.286 18.002L85.411 17.919L85.495 17.919L85.536 17.877L85.62 17.877L85.661 17.836L85.745 17.836L85.786 17.794L85.87 17.794L85.911 17.752L85.995 17.752L86.036 17.711L86.12 17.711L86.161 17.669L86.245 17.669L86.286 17.627L86.37 17.627L86.411 17.586L86.578 17.586L86.62 17.544L86.745 17.544L86.786 17.502L86.953 17.502L86.995 17.461L87.161 17.461L87.203 17.419L87.453 17.419L87.495 17.377L87.745 17.377L87.786 17.336L88.286 17.336ZM72.87 17.336L74.453 17.336L74.495 17.377L74.786 17.377L74.828 17.419L75.12 17.419L75.161 17.461L75.328 17.461L75.37 17.502L75.578 17.502L75.62 17.544L75.786 17.544L75.828 17.586L75.911 17.586L75.953 17.627L76.036 17.627L76.078 17.669L76.203 17.669L76.245 17.711L76.328 17.711L76.37 17.752L76.453 17.752L76.495 17.794L76.536 17.794L76.578 17.836L76.661 17.836L76.786 17.919L76.87 17.919L76.911 17.961L76.995 17.961L77.036 18.002L77.078 18.002L77.12 18.044L77.161 18.044L77.203 18.086L77.245 18.086L77.286 18.127L77.328 18.127L77.37 18.169L77.411 18.169L77.453 18.211L77.495 18.211L77.536 18.252L77.578 18.252L77.661 18.336L77.703 18.336L77.786 18.419L77.828 18.419L77.87 18.461L77.911 18.461L77.995 18.544L78.036 18.544L78.12 18.627L78.161 18.627L78.328 18.794L78.37 18.794L78.536 18.961L78.578 18.961L79.12 19.502L79.141 19.565L79.474 19.898L79.474 19.94L79.557 20.023L79.557 20.065L79.682 20.19L79.682 20.232L79.766 20.315L79.766 20.357L79.849 20.44L79.849 20.482L79.891 20.523L79.891 20.565L79.974 20.648L79.974 20.69L80.016 20.732L80.016 20.773L80.057 20.815L80.057 20.857L80.141 20.94L80.141 20.982L80.182 21.023L80.182 21.107L80.224 21.148L80.224 21.19L80.266 21.232L80.266 21.273L80.307 21.315L80.307 21.357L80.391 21.482L80.391 21.565L80.432 21.607L80.432 21.69L80.516 21.815L80.516 21.898L80.557 21.94L80.557 22.023L80.641 22.148L80.641 22.273L80.682 22.315L80.682 22.44L80.724 22.482L80.724 22.607L80.766 22.648L80.766 22.773L80.807 22.815L80.807 23.023L80.849 23.065L80.849 23.232L80.891 23.273L80.891 23.482L80.932 23.523L80.932 23.857L80.974 23.898L80.974 24.19L81.016 24.232L81.016 25.732L80.974 25.773L80.974 26.065L80.932 26.107L80.932 26.44L80.891 26.482L80.891 26.69L80.849 26.732L80.849 26.898L80.807 26.94L80.807 27.148L80.766 27.19L80.766 27.273L80.724 27.315L80.724 27.44L80.682 27.482L80.682 27.607L80.641 27.648L80.641 27.773L80.599 27.815L80.599 27.898L80.557 27.94L80.557 28.023L80.474 28.148L80.474 28.232L80.432 28.273L80.432 28.357L80.391 28.398L80.391 28.44L80.349 28.482L80.349 28.565L80.307 28.607L80.307 28.648L80.266 28.69L80.266 28.732L80.224 28.773L80.224 28.815L80.182 28.857L80.182 28.898L80.141 28.94L80.141 28.982L80.099 29.023L80.099 29.065L80.057 29.107L80.057 29.148L80.016 29.19L80.016 29.232L79.932 29.315L79.932 29.357L79.891 29.398L79.891 29.44L79.807 29.523L79.807 29.565L79.724 29.648L79.724 29.69L79.641 29.773L79.641 29.815L79.516 29.94L79.516 29.982L79.432 30.065L79.432 30.107L79.224 30.315L79.224 30.357L78.557 31.023L78.495 31.044L78.328 31.211L78.286 31.211L78.12 31.377L78.078 31.377L77.995 31.461L77.953 31.461L77.87 31.544L77.828 31.544L77.786 31.586L77.745 31.586L77.661 31.669L77.62 31.669L77.536 31.752L77.495 31.752L77.453 31.794L77.411 31.794L77.37 31.836L77.328 31.836L77.286 31.877L77.245 31.877L77.203 31.919L77.161 31.919L77.12 31.961L77.078 31.961L77.036 32.002L76.995 32.002L76.87 32.086L76.786 32.086L76.745 32.127L76.703 32.127L76.661 32.169L76.578 32.169L76.453 32.252L76.37 32.252L76.328 32.294L76.245 32.294L76.203 32.336L76.078 32.336L76.036 32.377L75.953 32.377L75.911 32.419L75.828 32.419L75.786 32.461L75.62 32.461L75.578 32.502L75.411 32.502L75.37 32.544L75.203 32.544L75.161 32.586L74.953 32.586L74.911 32.627L74.578 32.627L74.536 32.669L72.786 32.669L72.745 32.627L72.411 32.627L72.37 32.586L72.161 32.586L72.12 32.544L71.953 32.544L71.911 32.502L71.745 32.502L71.703 32.461L71.536 32.461L71.495 32.419L71.411 32.419L71.37 32.377L71.245 32.377L71.203 32.336L71.12 32.336L71.078 32.294L70.995 32.294L70.953 32.252L70.87 32.252L70.828 32.211L70.745 32.211L70.62 32.127L70.536 32.127L70.411 32.044L70.328 32.044L70.286 32.002L70.245 32.002L70.203 31.961L70.161 31.961L70.078 31.877L70.036 31.877L69.995 31.836L69.953 31.836L69.911 31.794L69.87 31.794L69.828 31.752L69.786 31.752L69.745 31.711L69.703 31.711L69.62 31.627L69.578 31.627L69.495 31.544L69.453 31.544L69.37 31.461L69.328 31.461L69.245 31.377L69.203 31.377L69.078 31.252L69.036 31.252L68.911 31.127L68.87 31.127L68.495 30.752L68.453 30.752L68.12 30.419L68.099 30.357L67.849 30.107L67.849 30.065L67.766 29.982L67.766 29.94L67.641 29.815L67.641 29.773L67.557 29.69L67.557 29.648L67.432 29.523L67.432 29.482L67.391 29.44L67.391 29.398L67.307 29.315L67.307 29.273L67.266 29.232L67.266 29.19L67.182 29.107L67.182 29.065L67.141 29.023L67.141 28.982L67.099 28.94L67.099 28.898L67.057 28.857L67.057 28.815L66.974 28.69L66.974 28.607L66.932 28.565L66.932 28.523L66.891 28.482L66.891 28.44L66.807 28.315L66.807 28.232L66.766 28.19L66.766 28.107L66.724 28.065L66.724 27.982L66.641 27.857L66.641 27.732L66.599 27.69L66.599 27.607L66.557 27.565L66.557 27.44L66.516 27.398L66.516 27.315L66.474 27.273L66.474 27.19L66.432 27.148L66.432 26.94L66.391 26.898L66.391 26.69L66.349 26.648L66.349 26.482L66.307 26.44L66.307 26.065L66.266 26.023L66.266 25.523L66.224 25.482L66.224 24.482L66.266 24.44L66.266 23.94L66.307 23.898L66.307 23.523L66.349 23.482L66.349 23.273L66.391 23.232L66.391 23.065L66.432 23.023L66.432 22.815L66.474 22.773L66.474 22.69L66.516 22.648L66.516 22.523L66.557 22.482L66.557 22.398L66.599 22.357L66.599 22.232L66.641 22.19L66.641 22.107L66.682 22.065L66.682 21.982L66.766 21.857L66.766 21.773L66.807 21.732L66.807 21.648L66.891 21.523L66.891 21.44L66.932 21.398L66.932 21.357L66.974 21.315L66.974 21.273L67.016 21.232L67.016 21.19L67.057 21.148L67.057 21.107L67.099 21.065L67.099 21.023L67.141 20.982L67.141 20.94L67.182 20.898L67.182 20.857L67.266 20.773L67.266 20.732L67.307 20.69L67.307 20.648L67.391 20.565L67.391 20.523L67.432 20.482L67.432 20.44L67.516 20.357L67.516 20.315L67.599 20.232L67.599 20.19L67.724 20.065L67.724 20.023L67.807 19.94L67.807 19.898L68.182 19.523L68.182 19.482L68.474 19.19L68.536 19.169L68.786 18.919L68.828 18.919L68.995 18.752L69.036 18.752L69.203 18.586L69.245 18.586L69.286 18.544L69.328 18.544L69.411 18.461L69.453 18.461L69.536 18.377L69.578 18.377L69.62 18.336L69.661 18.336L69.745 18.252L69.786 18.252L69.828 18.211L69.87 18.211L69.911 18.169L69.953 18.169L69.995 18.127L70.036 18.127L70.078 18.086L70.12 18.086L70.161 18.044L70.203 18.044L70.328 17.961L70.411 17.961L70.536 17.877L70.62 17.877L70.745 17.794L70.828 17.794L70.87 17.752L70.953 17.752L70.995 17.711L71.078 17.711L71.12 17.669L71.245 17.669L71.286 17.627L71.37 17.627L71.411 17.586L71.495 17.586L71.536 17.544L71.703 17.544L71.745 17.502L71.911 17.502L71.953 17.461L72.161 17.461L72.203 17.419L72.453 17.419L72.495 17.377L72.828 17.377ZM102.536 17.336L103.953 17.336L103.995 17.377L104.328 17.377L104.37 17.419L104.62 17.419L104.661 17.461L104.828 17.461L104.87 17.502L105.036 17.502L105.078 17.544L105.203 17.544L105.245 17.586L105.37 17.586L105.411 17.627L105.495 17.627L105.536 17.669L105.62 17.669L105.661 17.711L105.745 17.711L105.786 17.752L105.87 17.752L105.911 17.794L105.995 17.794L106.036 17.836L106.12 17.836L106.161 17.877L106.245 17.877L106.286 17.919L106.37 17.919L106.411 17.961L106.495 17.961L106.536 18.002L106.62 18.002L106.661 18.044L106.703 18.044L106.828 18.127L106.911 18.127L107.036 18.211L107.12 18.211L107.245 18.294L107.328 18.294L107.37 18.336L107.411 18.336L107.536 18.419L107.62 18.419L107.661 18.461L107.682 18.523L107.682 19.107L107.641 19.148L107.641 19.773L107.682 19.815L107.682 22.398L107.62 22.419L106.328 22.419L106.286 22.377L106.078 22.377L106.036 22.336L105.953 22.336L105.911 22.294L105.87 22.294L105.62 22.044L105.599 21.982L105.557 21.94L105.557 21.898L105.516 21.857L105.516 21.773L105.474 21.732L105.474 21.648L105.432 21.607L105.432 21.44L105.391 21.398L105.391 21.19L105.349 21.148L105.349 20.94L105.307 20.898L105.307 20.69L105.266 20.648L105.266 20.44L105.224 20.398L105.224 20.315L105.12 20.294L105.078 20.252L104.995 20.252L104.953 20.211L104.87 20.211L104.828 20.169L104.703 20.169L104.661 20.127L104.578 20.127L104.536 20.086L104.411 20.086L104.37 20.044L104.161 20.044L104.12 20.002L103.87 20.002L103.828 19.961L102.953 19.961L102.911 20.002L102.745 20.002L102.703 20.044L102.536 20.044L102.495 20.086L102.411 20.086L102.37 20.127L102.286 20.127L102.245 20.169L102.161 20.169L102.036 20.252L101.953 20.252L101.911 20.294L101.87 20.294L101.786 20.377L101.745 20.377L101.328 20.794L101.307 20.857L101.266 20.898L101.266 20.94L101.224 20.982L101.224 21.023L101.182 21.065L101.182 21.148L101.141 21.19L101.141 21.44L101.099 21.482L101.099 21.607L101.141 21.648L101.141 21.898L101.224 22.023L101.224 22.107L101.266 22.148L101.266 22.19L101.432 22.357L101.432 22.398L101.516 22.482L101.578 22.502L101.703 22.627L101.745 22.627L101.828 22.711L101.87 22.711L101.911 22.752L101.953 22.752L102.036 22.836L102.078 22.836L102.12 22.877L102.161 22.877L102.203 22.919L102.245 22.919L102.37 23.002L102.453 23.002L102.495 23.044L102.536 23.044L102.661 23.127L102.745 23.127L102.786 23.169L102.87 23.169L102.911 23.211L102.995 23.211L103.12 23.294L103.203 23.294L103.245 23.336L103.328 23.336L103.37 23.377L103.495 23.377L103.536 23.419L103.62 23.419L103.661 23.461L103.745 23.461L103.786 23.502L103.87 23.502L103.911 23.544L103.995 23.544L104.036 23.586L104.12 23.586L104.161 23.627L104.245 23.627L104.286 23.669L104.37 23.669L104.411 23.711L104.495 23.711L104.536 23.752L104.62 23.752L104.661 23.794L104.745 23.794L104.786 23.836L104.87 23.836L104.995 23.919L105.078 23.919L105.12 23.961L105.203 23.961L105.245 24.002L105.328 24.002L105.37 24.044L105.411 24.044L105.453 24.086L105.495 24.086L105.62 24.169L105.703 24.169L105.745 24.211L105.786 24.211L105.828 24.252L105.87 24.252L105.911 24.294L105.953 24.294L105.995 24.336L106.036 24.336L106.078 24.377L106.12 24.377L106.161 24.419L106.203 24.419L106.245 24.461L106.286 24.461L106.328 24.502L106.37 24.502L106.453 24.586L106.495 24.586L106.536 24.627L106.578 24.627L106.661 24.711L106.703 24.711L106.786 24.794L106.828 24.794L106.911 24.877L106.953 24.877L107.036 24.961L107.078 24.961L107.62 25.502L107.641 25.565L107.766 25.69L107.766 25.732L107.891 25.857L107.891 25.898L107.932 25.94L107.932 25.982L107.974 26.023L107.974 26.065L108.016 26.107L108.016 26.148L108.057 26.19L108.057 26.232L108.141 26.357L108.141 26.44L108.182 26.482L108.182 26.607L108.224 26.648L108.224 26.732L108.266 26.773L108.266 26.982L108.307 27.023L108.307 27.19L108.349 27.232L108.349 28.357L108.307 28.398L108.307 28.607L108.266 28.648L108.266 28.898L108.224 28.94L108.224 29.023L108.182 29.065L108.182 29.148L108.141 29.19L108.141 29.315L108.099 29.357L108.099 29.44L108.057 29.482L108.057 29.523L108.016 29.565L108.016 29.648L107.932 29.773L107.932 29.857L107.891 29.898L107.891 29.94L107.807 30.023L107.807 30.065L107.766 30.107L107.766 30.148L107.724 30.19L107.724 30.232L107.641 30.315L107.641 30.357L107.516 30.482L107.516 30.523L107.391 30.648L107.391 30.69L107.141 30.94L107.141 30.982L106.974 31.148L106.911 31.169L106.703 31.377L106.661 31.377L106.495 31.544L106.453 31.544L106.37 31.627L106.328 31.627L106.245 31.711L106.203 31.711L106.12 31.794L106.078 31.794L106.036 31.836L105.995 31.836L105.953 31.877L105.911 31.877L105.87 31.919L105.828 31.919L105.786 31.961L105.745 31.961L105.703 32.002L105.661 32.002L105.62 32.044L105.578 32.044L105.536 32.086L105.495 32.086L105.37 32.169L105.286 32.169L105.245 32.211L105.203 32.211L105.161 32.252L105.078 32.252L104.953 32.336L104.828 32.336L104.786 32.377L104.703 32.377L104.661 32.419L104.578 32.419L104.536 32.461L104.411 32.461L104.37 32.502L104.203 32.502L104.161 32.544L103.953 32.544L103.911 32.586L103.703 32.586L103.661 32.627L103.328 32.627L103.286 32.669L101.328 32.669L101.286 32.627L100.911 32.627L100.87 32.586L100.578 32.586L100.536 32.544L100.286 32.544L100.245 32.502L99.995 32.502L99.953 32.461L99.745 32.461L99.703 32.419L99.536 32.419L99.495 32.377L99.328 32.377L99.286 32.336L99.12 32.336L99.078 32.294L98.953 32.294L98.911 32.252L98.786 32.252L98.745 32.211L98.578 32.211L98.536 32.169L98.411 32.169L98.37 32.127L98.245 32.127L98.203 32.086L98.12 32.086L98.078 32.044L97.995 32.044L97.953 32.002L97.87 32.002L97.828 31.961L97.745 31.961L97.703 31.919L97.62 31.919L97.599 31.857L97.599 27.69L97.661 27.669L99.036 27.669L99.078 27.711L99.245 27.711L99.286 27.752L99.37 27.752L99.453 27.836L99.495 27.836L99.578 27.919L99.599 27.982L99.682 28.065L99.682 28.107L99.724 28.148L99.724 28.232L99.807 28.357L99.807 28.44L99.849 28.482L99.849 28.69L99.891 28.732L99.891 28.94L99.932 28.982L99.932 29.19L99.974 29.232L99.974 29.44L100.016 29.482L100.016 29.648L100.057 29.69L100.057 29.732L100.099 29.773L100.203 29.794L100.245 29.836L100.37 29.836L100.411 29.877L100.495 29.877L100.536 29.919L100.661 29.919L100.703 29.961L100.828 29.961L100.87 30.002L100.995 30.002L101.036 30.044L101.203 30.044L101.245 30.086L101.536 30.086L101.578 30.127L102.036 30.127L102.078 30.169L102.911 30.169L102.953 30.127L103.203 30.127L103.245 30.086L103.411 30.086L103.453 30.044L103.578 30.044L103.62 30.002L103.703 30.002L103.745 29.961L103.828 29.961L103.953 29.877L104.036 29.877L104.161 29.752L104.203 29.752L104.286 29.669L104.328 29.669L104.536 29.461L104.557 29.398L104.682 29.273L104.682 29.232L104.724 29.19L104.724 29.148L104.766 29.107L104.766 29.065L104.849 28.94L104.849 28.815L104.891 28.773L104.891 28.065L104.849 28.023L104.849 27.94L104.807 27.898L104.807 27.815L104.766 27.773L104.766 27.732L104.682 27.648L104.682 27.607L104.641 27.565L104.641 27.523L104.557 27.44L104.495 27.419L104.286 27.211L104.245 27.211L104.203 27.169L104.161 27.169L104.078 27.086L104.036 27.086L103.953 27.002L103.911 27.002L103.87 26.961L103.786 26.961L103.745 26.919L103.703 26.919L103.661 26.877L103.62 26.877L103.495 26.794L103.411 26.794L103.37 26.752L103.286 26.752L103.161 26.669L103.078 26.669L103.036 26.627L102.953 26.627L102.911 26.586L102.828 26.586L102.786 26.544L102.703 26.544L102.661 26.502L102.578 26.502L102.536 26.461L102.411 26.461L102.37 26.419L102.286 26.419L102.245 26.377L102.161 26.377L102.12 26.336L102.036 26.336L101.995 26.294L101.911 26.294L101.87 26.252L101.786 26.252L101.745 26.211L101.661 26.211L101.62 26.169L101.536 26.169L101.495 26.127L101.411 26.127L101.37 26.086L101.286 26.086L101.245 26.044L101.161 26.044L101.036 25.961L100.953 25.961L100.911 25.919L100.828 25.919L100.703 25.836L100.62 25.836L100.578 25.794L100.536 25.794L100.495 25.752L100.453 25.752L100.328 25.669L100.245 25.669L100.203 25.627L100.161 25.627L100.12 25.586L100.078 25.586L100.036 25.544L99.995 25.544L99.953 25.502L99.911 25.502L99.87 25.461L99.828 25.461L99.745 25.377L99.703 25.377L99.661 25.336L99.62 25.336L99.578 25.294L99.536 25.294L99.495 25.252L99.453 25.252L99.37 25.169L99.328 25.169L99.245 25.086L99.203 25.086L99.12 25.002L99.078 25.002L98.828 24.752L98.786 24.752L98.495 24.461L98.474 24.398L98.307 24.232L98.307 24.19L98.224 24.107L98.224 24.065L98.099 23.94L98.099 23.857L98.057 23.815L98.057 23.773L98.016 23.732L98.016 23.69L97.974 23.648L97.974 23.607L97.891 23.482L97.891 23.398L97.849 23.357L97.849 23.273L97.807 23.232L97.807 23.148L97.766 23.107L97.766 22.982L97.724 22.94L97.724 22.773L97.682 22.732L97.682 22.523L97.641 22.482L97.641 21.398L97.682 21.357L97.682 21.148L97.724 21.107L97.724 20.898L97.766 20.857L97.766 20.773L97.807 20.732L97.807 20.648L97.849 20.607L97.849 20.482L97.932 20.357L97.932 20.273L97.974 20.232L97.974 20.19L98.016 20.148L98.016 20.107L98.057 20.065L98.057 20.023L98.099 19.982L98.099 19.94L98.141 19.898L98.141 19.857L98.182 19.815L98.182 19.773L98.224 19.732L98.224 19.69L98.307 19.607L98.307 19.565L98.391 19.482L98.391 19.44L98.516 19.315L98.516 19.273L98.891 18.898L98.891 18.857L99.016 18.732L99.078 18.711L99.286 18.502L99.328 18.502L99.453 18.377L99.495 18.377L99.578 18.294L99.62 18.294L99.703 18.211L99.745 18.211L99.828 18.127L99.87 18.127L99.911 18.086L99.953 18.086L99.995 18.044L100.036 18.044L100.078 18.002L100.12 18.002L100.161 17.961L100.203 17.961L100.328 17.877L100.411 17.877L100.453 17.836L100.495 17.836L100.536 17.794L100.62 17.794L100.745 17.711L100.828 17.711L100.87 17.669L100.953 17.669L100.995 17.627L101.12 17.627L101.161 17.586L101.245 17.586L101.286 17.544L101.411 17.544L101.453 17.502L101.62 17.502L101.661 17.461L101.87 17.461L101.911 17.419L102.12 17.419L102.161 17.377L102.495 17.377ZM128.286 17.544L135.328 17.544L135.349 17.607L135.349 19.482L135.307 19.523L135.307 19.607L135.266 19.648L135.266 19.69L135.224 19.732L135.224 19.773L134.995 19.961L134.953 19.961L134.911 20.002L134.87 20.002L134.745 20.086L134.661 20.086L134.62 20.127L134.495 20.127L134.453 20.169L134.286 20.169L134.245 20.211L134.12 20.211L134.078 20.252L133.953 20.252L133.932 20.357L134.016 20.482L134.016 20.565L134.099 20.69L134.099 20.773L134.182 20.898L134.182 20.982L134.266 21.107L134.266 21.19L134.349 21.315L134.349 21.398L134.432 21.523L134.432 21.607L134.516 21.732L134.516 21.815L134.557 21.857L134.557 21.898L134.641 22.023L134.641 22.107L134.724 22.232L134.724 22.315L134.807 22.44L134.807 22.523L134.891 22.648L134.891 22.732L134.974 22.857L134.974 22.94L135.057 23.065L135.057 23.148L135.141 23.273L135.141 23.357L135.224 23.482L135.224 23.565L135.307 23.69L135.307 23.773L135.349 23.815L135.349 23.857L135.432 23.982L135.432 24.065L135.516 24.19L135.516 24.273L135.599 24.398L135.599 24.482L135.682 24.607L135.682 24.69L135.766 24.815L135.766 24.898L135.849 25.023L135.849 25.107L135.932 25.232L135.932 25.315L136.016 25.44L136.016 25.523L136.099 25.648L136.099 25.732L136.141 25.773L136.141 25.815L136.224 25.94L136.224 26.065L136.266 26.107L136.266 26.19L136.307 26.232L136.307 26.315L136.349 26.357L136.349 26.44L136.391 26.482L136.391 26.565L136.474 26.69L136.474 26.815L136.516 26.857L136.516 26.94L136.557 26.982L136.557 27.107L136.599 27.148L136.599 27.232L136.641 27.273L136.641 27.357L136.682 27.398L136.682 27.44L136.724 27.44L136.724 27.357L136.807 27.232L136.807 27.148L136.849 27.107L136.849 27.023L136.891 26.982L136.891 26.898L136.932 26.857L136.932 26.773L136.974 26.732L136.974 26.648L137.016 26.607L137.016 26.523L137.057 26.482L137.057 26.398L137.099 26.357L137.099 26.273L137.141 26.232L137.141 26.148L137.224 26.023L137.224 25.94L137.266 25.898L137.266 25.815L137.307 25.773L137.307 25.69L137.349 25.648L137.349 25.607L137.391 25.565L137.391 25.482L137.474 25.357L137.474 25.273L137.516 25.232L137.516 25.148L137.599 25.023L137.599 24.94L137.641 24.898L137.641 24.815L137.724 24.69L137.724 24.607L137.766 24.565L137.766 24.482L137.807 24.44L137.807 24.398L137.849 24.357L137.849 24.273L137.932 24.148L137.932 24.065L137.974 24.023L137.974 23.94L138.057 23.815L138.057 23.732L138.099 23.69L138.099 23.607L138.182 23.482L138.182 23.398L138.224 23.357L138.224 23.273L138.266 23.232L138.266 23.19L138.307 23.148L138.307 23.065L138.391 22.94L138.391 22.857L138.432 22.815L138.432 22.732L138.516 22.607L138.516 22.523L138.557 22.482L138.557 22.398L138.641 22.273L138.641 22.19L138.682 22.148L138.682 22.065L138.766 21.94L138.766 21.857L138.849 21.732L138.849 21.648L138.891 21.607L138.891 21.523L138.974 21.398L138.974 21.315L139.016 21.273L139.016 21.19L139.099 21.065L139.099 20.982L139.141 20.94L139.141 20.857L139.224 20.732L139.224 20.648L139.266 20.607L139.266 20.523L139.349 20.398L139.349 20.357L139.286 20.336L139.245 20.294L139.078 20.294L139.036 20.252L138.87 20.252L138.828 20.211L138.661 20.211L138.62 20.169L138.453 20.169L138.411 20.127L138.328 20.127L138.286 20.086L138.203 20.086L138.078 20.002L137.995 20.002L137.87 19.877L137.828 19.877L137.703 19.752L137.682 19.69L137.641 19.648L137.641 19.565L137.599 19.523L137.599 19.398L137.557 19.357L137.557 17.565L137.62 17.544L144.661 17.544L144.682 17.607L144.682 19.315L144.641 19.357L144.641 19.523L144.599 19.565L144.599 19.69L144.391 19.898L144.328 19.919L144.245 20.002L144.203 20.002L144.078 20.086L143.953 20.086L143.911 20.127L143.786 20.127L143.745 20.169L143.578 20.169L143.536 20.211L143.411 20.211L143.37 20.252L143.203 20.252L143.161 20.294L142.995 20.294L142.911 20.377L142.891 20.482L142.849 20.523L142.849 20.565L142.766 20.69L142.766 20.773L142.724 20.815L142.724 20.857L142.641 20.982L142.641 21.065L142.599 21.107L142.599 21.148L142.516 21.273L142.516 21.357L142.474 21.398L142.474 21.44L142.391 21.565L142.391 21.648L142.349 21.69L142.349 21.732L142.266 21.857L142.266 21.94L142.224 21.982L142.224 22.023L142.141 22.148L142.141 22.232L142.099 22.273L142.099 22.315L142.016 22.44L142.016 22.523L141.974 22.565L141.974 22.607L141.891 22.732L141.891 22.815L141.849 22.857L141.849 22.898L141.766 23.023L141.766 23.107L141.724 23.148L141.724 23.19L141.641 23.315L141.641 23.398L141.599 23.44L141.599 23.482L141.516 23.607L141.516 23.69L141.474 23.732L141.474 23.773L141.391 23.898L141.391 23.982L141.349 24.023L141.349 24.065L141.266 24.19L141.266 24.273L141.224 24.315L141.224 24.357L141.141 24.482L141.141 24.565L141.099 24.607L141.099 24.648L141.016 24.773L141.016 24.857L140.974 24.898L140.974 24.94L140.891 25.065L140.891 25.148L140.849 25.19L140.849 25.232L140.766 25.357L140.766 25.44L140.724 25.482L140.724 25.523L140.641 25.648L140.641 25.732L140.599 25.773L140.599 25.815L140.516 25.94L140.516 26.023L140.474 26.065L140.474 26.107L140.391 26.232L140.391 26.315L140.349 26.357L140.349 26.398L140.266 26.523L140.266 26.607L140.224 26.648L140.224 26.69L140.141 26.815L140.141 26.898L140.099 26.94L140.099 26.982L140.016 27.107L140.016 27.19L139.974 27.232L139.974 27.273L139.891 27.398L139.891 27.482L139.807 27.607L139.807 27.69L139.766 27.732L139.766 27.773L139.682 27.898L139.682 27.982L139.641 28.023L139.641 28.065L139.557 28.19L139.557 28.273L139.516 28.315L139.516 28.357L139.432 28.482L139.432 28.565L139.391 28.607L139.391 28.648L139.307 28.773L139.307 28.857L139.266 28.898L139.266 28.94L139.182 29.065L139.182 29.148L139.141 29.19L139.141 29.232L139.057 29.357L139.057 29.44L139.016 29.482L139.016 29.523L138.932 29.648L138.932 29.732L138.891 29.773L138.891 29.815L138.807 29.94L138.807 30.023L138.766 30.065L138.766 30.107L138.682 30.232L138.682 30.315L138.641 30.357L138.641 30.398L138.557 30.523L138.557 30.607L138.516 30.648L138.516 30.69L138.432 30.815L138.432 30.898L138.391 30.94L138.391 30.982L138.307 31.107L138.307 31.19L138.266 31.232L138.266 31.273L138.182 31.398L138.182 31.482L138.141 31.523L138.141 31.565L138.057 31.69L138.057 31.773L138.016 31.815L138.016 31.857L137.932 31.982L137.932 32.065L137.891 32.107L137.891 32.148L137.807 32.273L137.807 32.357L137.766 32.398L137.766 32.44L137.682 32.565L137.682 32.648L137.641 32.69L137.641 32.732L137.557 32.857L137.557 32.94L137.516 32.982L137.516 33.023L137.432 33.148L137.432 33.232L137.391 33.273L137.391 33.315L137.307 33.44L137.307 33.523L137.266 33.565L137.266 33.607L137.182 33.732L137.182 33.815L137.141 33.857L137.141 33.898L137.057 34.023L137.057 34.107L137.016 34.148L137.016 34.19L136.932 34.315L136.932 34.398L136.891 34.44L136.891 34.482L136.807 34.607L136.807 34.69L136.724 34.815L136.724 34.898L136.682 34.94L136.682 34.982L136.599 35.107L136.599 35.19L136.557 35.232L136.557 35.273L136.474 35.398L136.474 35.482L136.432 35.523L136.432 35.565L136.349 35.69L136.349 35.773L136.307 35.815L136.307 35.857L136.224 35.982L136.224 36.065L136.182 36.107L136.182 36.148L136.099 36.273L136.099 36.357L136.057 36.398L136.057 36.44L136.016 36.482L136.016 36.523L135.932 36.648L135.932 36.732L135.849 36.815L135.849 36.857L135.557 37.148L135.495 37.169L135.453 37.211L135.411 37.211L135.37 37.252L135.286 37.252L135.245 37.294L135.161 37.294L135.12 37.336L132.078 37.336L132.099 37.232L132.141 37.19L132.141 37.148L132.224 37.023L132.224 36.94L132.266 36.898L132.266 36.857L132.307 36.815L132.307 36.773L132.349 36.732L132.349 36.69L132.391 36.648L132.391 36.607L132.432 36.565L132.432 36.523L132.516 36.398L132.516 36.315L132.557 36.273L132.557 36.232L132.599 36.19L132.599 36.148L132.641 36.107L132.641 36.065L132.682 36.023L132.682 35.982L132.724 35.94L132.724 35.898L132.807 35.773L132.807 35.69L132.849 35.648L132.849 35.607L132.891 35.565L132.891 35.523L132.932 35.482L132.932 35.44L132.974 35.398L132.974 35.357L133.016 35.315L133.016 35.273L133.057 35.232L133.057 35.19L133.141 35.065L133.141 34.982L133.182 34.94L133.182 34.898L133.224 34.857L133.224 34.815L133.266 34.773L133.266 34.732L133.307 34.69L133.307 34.648L133.349 34.607L133.349 34.565L133.432 34.44L133.432 34.357L133.474 34.315L133.474 34.273L133.516 34.232L133.516 34.19L133.557 34.148L133.557 34.107L133.599 34.065L133.599 34.023L133.641 33.982L133.641 33.94L133.724 33.815L133.724 33.732L133.766 33.69L133.766 33.648L133.807 33.607L133.807 33.565L133.849 33.523L133.849 33.482L133.891 33.44L133.891 33.398L133.932 33.357L133.932 33.315L133.974 33.273L133.974 33.232L134.057 33.107L134.057 33.023L134.099 32.982L134.099 32.94L134.141 32.898L134.141 32.857L134.182 32.815L134.182 32.773L134.224 32.732L134.224 32.69L134.266 32.648L134.266 32.607L134.349 32.482L134.349 32.398L134.391 32.357L134.391 32.315L134.432 32.273L134.432 32.232L134.474 32.19L134.474 32.148L134.516 32.107L134.516 32.065L134.557 32.023L134.557 31.982L134.641 31.857L134.641 31.773L134.682 31.732L134.682 31.69L134.724 31.648L134.724 31.607L134.766 31.565L134.766 31.523L134.849 31.398L134.849 31.232L134.807 31.19L134.807 31.148L134.766 31.107L134.766 31.065L134.682 30.94L134.682 30.857L134.641 30.815L134.641 30.773L134.557 30.648L134.557 30.565L134.516 30.523L134.516 30.482L134.474 30.44L134.474 30.398L134.391 30.273L134.391 30.19L134.349 30.148L134.349 30.107L134.307 30.065L134.307 30.023L134.224 29.898L134.224 29.815L134.182 29.773L134.182 29.732L134.099 29.607L134.099 29.523L134.057 29.482L134.057 29.44L134.016 29.398L134.016 29.357L133.932 29.232L133.932 29.148L133.891 29.107L133.891 29.065L133.807 28.94L133.807 28.857L133.766 28.815L133.766 28.773L133.724 28.732L133.724 28.69L133.641 28.565L133.641 28.482L133.599 28.44L133.599 28.398L133.516 28.273L133.516 28.19L133.474 28.148L133.474 28.107L133.432 28.065L133.432 28.023L133.349 27.898L133.349 27.815L133.307 27.773L133.307 27.732L133.224 27.607L133.224 27.523L133.182 27.482L133.182 27.44L133.141 27.398L133.141 27.357L133.057 27.232L133.057 27.148L133.016 27.107L133.016 27.065L132.974 27.023L132.974 26.982L132.891 26.857L132.891 26.773L132.849 26.732L132.849 26.69L132.766 26.565L132.766 26.482L132.724 26.44L132.724 26.398L132.682 26.357L132.682 26.315L132.599 26.19L132.599 26.107L132.557 26.065L132.557 26.023L132.474 25.898L132.474 25.815L132.432 25.773L132.432 25.732L132.391 25.69L132.391 25.648L132.307 25.523L132.307 25.44L132.266 25.398L132.266 25.357L132.182 25.232L132.182 25.148L132.141 25.107L132.141 25.065L132.099 25.023L132.099 24.982L132.016 24.857L132.016 24.773L131.974 24.732L131.974 24.69L131.891 24.565L131.891 24.482L131.849 24.44L131.849 24.398L131.807 24.357L131.807 24.315L131.724 24.19L131.724 24.107L131.682 24.065L131.682 24.023L131.599 23.898L131.599 23.815L131.557 23.773L131.557 23.732L131.516 23.69L131.516 23.648L131.432 23.523L131.432 23.44L131.391 23.398L131.391 23.357L131.349 23.315L131.349 23.273L131.266 23.148L131.266 23.065L131.224 23.023L131.224 22.982L131.141 22.857L131.141 22.773L131.099 22.732L131.099 22.69L131.057 22.648L131.057 22.607L130.974 22.482L130.974 22.398L130.932 22.357L130.932 22.315L130.849 22.19L130.849 22.107L130.807 22.065L130.807 22.023L130.766 21.982L130.766 21.94L130.682 21.815L130.682 21.732L130.641 21.69L130.641 21.648L130.557 21.523L130.557 21.44L130.516 21.398L130.516 21.357L130.474 21.315L130.474 21.273L130.391 21.148L130.391 21.065L130.349 21.023L130.349 20.982L130.266 20.857L130.266 20.773L130.224 20.732L130.224 20.69L130.182 20.648L130.182 20.607L130.099 20.482L130.099 20.398L129.953 20.294L129.786 20.294L129.745 20.252L129.578 20.252L129.536 20.211L129.411 20.211L129.37 20.169L129.203 20.169L129.161 20.127L129.036 20.127L128.995 20.086L128.87 20.086L128.828 20.044L128.786 20.044L128.745 20.002L128.703 20.002L128.62 19.919L128.578 19.919L128.37 19.711L128.349 19.607L128.266 19.482L128.266 17.607ZM73.057 20.148L72.995 20.169L72.828 20.169L72.786 20.211L72.661 20.211L72.62 20.252L72.495 20.252L72.453 20.294L72.37 20.294L72.328 20.336L72.245 20.336L72.203 20.377L72.161 20.377L72.036 20.461L71.953 20.461L71.87 20.544L71.828 20.544L71.786 20.586L71.745 20.586L71.703 20.627L71.661 20.627L71.495 20.794L71.453 20.794L70.995 21.252L70.974 21.315L70.849 21.44L70.849 21.482L70.766 21.565L70.766 21.607L70.724 21.648L70.724 21.69L70.682 21.732L70.682 21.773L70.599 21.857L70.599 21.898L70.557 21.94L70.557 22.023L70.516 22.065L70.516 22.107L70.432 22.232L70.432 22.315L70.391 22.357L70.391 22.44L70.349 22.482L70.349 22.607L70.307 22.648L70.307 22.732L70.266 22.773L70.266 22.898L70.224 22.94L70.224 23.107L70.182 23.148L70.182 23.315L70.141 23.357L70.141 23.523L70.099 23.565L70.099 23.94L70.057 23.982L70.057 24.607L70.016 24.648L70.016 25.357L70.057 25.398L70.057 26.023L70.099 26.065L70.099 26.44L70.141 26.482L70.141 26.648L70.182 26.69L70.182 26.857L70.224 26.898L70.224 27.065L70.266 27.107L70.266 27.19L70.307 27.232L70.307 27.357L70.349 27.398L70.349 27.482L70.391 27.523L70.391 27.607L70.432 27.648L70.432 27.732L70.474 27.773L70.474 27.815L70.557 27.94L70.557 28.023L70.599 28.065L70.599 28.107L70.641 28.148L70.641 28.19L70.682 28.232L70.682 28.273L70.766 28.357L70.766 28.398L70.807 28.44L70.807 28.482L70.849 28.523L70.849 28.565L70.974 28.69L70.974 28.732L71.141 28.898L71.141 28.94L71.349 29.148L71.411 29.169L71.578 29.336L71.62 29.336L71.661 29.377L71.703 29.377L71.786 29.461L71.828 29.461L71.87 29.502L71.911 29.502L71.953 29.544L71.995 29.544L72.036 29.586L72.078 29.586L72.12 29.627L72.161 29.627L72.286 29.711L72.411 29.711L72.453 29.752L72.536 29.752L72.578 29.794L72.703 29.794L72.745 29.836L72.953 29.836L72.995 29.877L73.37 29.877L73.411 29.919L73.87 29.919L73.911 29.877L74.286 29.877L74.328 29.836L74.536 29.836L74.578 29.794L74.703 29.794L74.745 29.752L74.828 29.752L74.87 29.711L74.995 29.711L75.036 29.669L75.078 29.669L75.12 29.627L75.161 29.627L75.286 29.544L75.37 29.544L75.453 29.461L75.495 29.461L75.578 29.377L75.62 29.377L75.703 29.294L75.745 29.294L75.911 29.127L75.953 29.127L76.078 29.002L76.099 28.94L76.307 28.732L76.307 28.69L76.391 28.607L76.391 28.565L76.432 28.523L76.432 28.482L76.516 28.398L76.516 28.357L76.557 28.315L76.557 28.273L76.599 28.232L76.599 28.19L76.641 28.148L76.641 28.107L76.724 27.982L76.724 27.898L76.766 27.857L76.766 27.815L76.849 27.69L76.849 27.565L76.891 27.523L76.891 27.44L76.932 27.398L76.932 27.273L76.974 27.232L76.974 27.148L77.016 27.107L77.016 26.94L77.057 26.898L77.057 26.732L77.099 26.69L77.099 26.482L77.141 26.44L77.141 26.107L77.182 26.065L77.182 25.398L77.224 25.357L77.224 24.648L77.182 24.607L77.182 23.94L77.141 23.898L77.141 23.523L77.099 23.482L77.099 23.315L77.057 23.273L77.057 23.065L77.016 23.023L77.016 22.857L76.974 22.815L76.974 22.732L76.932 22.69L76.932 22.565L76.891 22.523L76.891 22.44L76.849 22.398L76.849 22.273L76.807 22.232L76.807 22.19L76.724 22.065L76.724 21.982L76.682 21.94L76.682 21.898L76.641 21.857L76.641 21.815L76.599 21.773L76.599 21.732L76.557 21.69L76.557 21.648L76.516 21.607L76.516 21.565L76.432 21.482L76.432 21.44L76.349 21.357L76.349 21.315L76.224 21.19L76.224 21.148L75.974 20.898L75.911 20.877L75.745 20.711L75.703 20.711L75.62 20.627L75.578 20.627L75.495 20.544L75.453 20.544L75.411 20.502L75.37 20.502L75.328 20.461L75.286 20.461L75.245 20.419L75.203 20.419L75.078 20.336L74.995 20.336L74.953 20.294L74.87 20.294L74.828 20.252L74.745 20.252L74.703 20.211L74.578 20.211L74.536 20.169L74.286 20.169L74.245 20.127L73.12 20.127ZM90.599 26.148L90.536 26.169L89.828 26.169L89.786 26.211L89.328 26.211L89.286 26.252L88.995 26.252L88.953 26.294L88.703 26.294L88.661 26.336L88.453 26.336L88.411 26.377L88.245 26.377L88.203 26.419L88.036 26.419L87.995 26.461L87.87 26.461L87.828 26.502L87.703 26.502L87.661 26.544L87.536 26.544L87.495 26.586L87.411 26.586L87.37 26.627L87.286 26.627L87.245 26.669L87.161 26.669L87.12 26.711L87.036 26.711L86.995 26.752L86.911 26.752L86.87 26.794L86.828 26.794L86.786 26.836L86.745 26.836L86.703 26.877L86.661 26.877L86.62 26.919L86.578 26.919L86.536 26.961L86.495 26.961L86.453 27.002L86.411 27.002L86.328 27.086L86.286 27.086L86.203 27.169L86.161 27.169L85.828 27.502L85.807 27.565L85.724 27.648L85.724 27.69L85.682 27.732L85.682 27.773L85.599 27.898L85.599 27.982L85.557 28.023L85.557 28.148L85.516 28.19L85.516 28.773L85.557 28.815L85.557 29.023L85.599 29.065L85.599 29.19L85.641 29.232L85.641 29.273L85.682 29.315L85.682 29.398L85.766 29.482L85.766 29.523L86.057 29.815L86.12 29.836L86.203 29.919L86.245 29.919L86.37 30.002L86.453 30.002L86.495 30.044L86.578 30.044L86.62 30.086L86.703 30.086L86.745 30.127L86.911 30.127L86.953 30.169L87.328 30.169L87.37 30.211L87.62 30.211L87.661 30.169L88.12 30.169L88.161 30.127L88.37 30.127L88.411 30.086L88.578 30.086L88.62 30.044L88.703 30.044L88.745 30.002L88.87 30.002L88.911 29.961L88.995 29.961L89.12 29.877L89.203 29.877L89.245 29.836L89.286 29.836L89.328 29.794L89.37 29.794L89.411 29.752L89.453 29.752L89.536 29.669L89.578 29.669L89.62 29.627L89.661 29.627L89.703 29.586L89.745 29.586L89.828 29.502L89.87 29.502L89.995 29.377L90.036 29.377L90.12 29.294L90.161 29.294L90.328 29.127L90.37 29.127L90.828 28.669L90.849 28.607L90.849 26.148L90.786 26.127L90.661 26.127Z"></path>
</svg>